<?xml version="1.0" encoding="utf-8"?>
<!-- Generator: Adobe Illustrator 27.8.0, SVG Export Plug-In . SVG Version: 6.00 Build 0)  -->
<svg version="1.1" id="Layer_1" xmlns="http://www.w3.org/2000/svg" xmlns:xlink="http://www.w3.org/1999/xlink" x="0px" y="0px"
	 viewBox="0 0 1038.39 595.28" style="enable-background:new 0 0 1038.39 595.28;" xml:space="preserve">
<style type="text/css">
	.st0{fill:#1B1B1B;}
	.st1{fill:#CEC8FE;}
	.st2{fill:#FEFEFE;}
</style>
<g>
	<g>
		<path class="st0" d="M64.15,264.56c-0.31-39.22,22.67-64.72,47.7-75.49c7.87-3.38,16.16-5.16,24.74-5.72
			c12.14-0.8,23.92,0.67,35.27,5.09c11.33,4.41,20.87,11.43,29.06,20.33c8.79,9.55,15.11,20.53,17.89,33.24
			c5.74,26.26,1.03,50.17-16.83,70.87c-0.74,0.86-0.54,1.24,0.14,1.93c4.77,4.83,9.48,9.71,14.26,14.53
			c0.71,0.72,0.67,1.06-0.06,1.71c-5.29,4.72-10.56,9.47-15.78,14.26c-0.82,0.75-1.14,0.32-1.67-0.22
			c-4.91-5.05-9.86-10.06-14.74-15.13c-0.82-0.85-1.38-0.93-2.42-0.34c-8.73,4.96-18.07,8.28-28.02,9.53
			c-23.2,2.9-44.13-2.44-62.1-17.84c-10.33-8.85-18.16-19.5-22.83-32.35C65.53,280.1,64.14,270.92,64.15,264.56z M165.25,310.76
			c-0.56-0.59-1-1.07-1.46-1.54c-8.38-8.58-16.74-17.17-25.15-25.72c-0.77-0.78-0.91-1.16,0.01-1.97c5.28-4.66,10.5-9.38,15.7-14.12
			c0.72-0.66,1.06-0.53,1.65,0.1c2,2.11,4.07,4.16,6.1,6.24c7.03,7.19,14.05,14.38,21.09,21.56c0.41,0.42,0.76,1.36,1.57,0.25
			c1.86-2.55,3.68-5.13,5.15-7.93c6.55-12.5,7.84-25.7,4.85-39.32c-3.17-14.43-11.56-25.27-23.88-33.19
			c-6.36-4.09-13.39-6.34-20.87-7.29c-9.87-1.25-19.59-0.45-28.62,3.68c-17.84,8.15-28.84,21.84-31.7,41.51
			c-1.69,11.61-0.36,22.88,4.95,33.47c5.11,10.19,12.81,18.01,22.89,23.27c11.69,6.1,24.14,7.35,37,4.7
			C158.2,313.67,161.75,312.47,165.25,310.76z"/>
		<path class="st1" d="M626.16,322.39c0,0.55,0,1.1,0,1.65c0,18.11-0.02,36.22,0.04,54.33c0,1.56-0.39,1.97-1.94,1.94
			c-6.48-0.09-12.97-0.09-19.45,0c-1.51,0.02-1.98-0.31-1.97-1.92c0.06-19.69,0.04-39.38,0.04-59.07c0-29.43,0-58.87,0-88.3
			c0-1.96,0-1.96,2-1.96c6.59,0,13.17,0.03,19.76-0.03c1.2-0.01,1.57,0.32,1.56,1.54c-0.07,4.49-0.03,8.97-0.03,13.59
			c0.99-0.33,1.25-1.23,1.76-1.84c4.68-5.69,10.36-9.99,17.24-12.71c7.04-2.79,14.39-3.67,21.86-3.26
			c11.37,0.62,21.49,4.57,30.21,12c6.05,5.15,10.99,11.18,14.54,18.28c3.29,6.56,5.11,13.54,5.74,20.88
			c0.7,8.11,0.03,16.06-2.3,23.82c-2.27,7.55-6.12,14.26-11.35,20.21c-3.49,3.97-7.38,7.46-11.79,10.32
			c-6.72,4.35-14.05,7.04-22.1,7.76c-7.84,0.69-15.56,0.27-23.05-2.27c-8.13-2.75-14.78-7.64-19.96-14.5
			c-0.15-0.2-0.28-0.42-0.41-0.63C626.42,322.25,626.29,322.32,626.16,322.39z M661.18,317.48c0.99-0.08,2.91,0.05,4.85-0.22
			c6.39-0.9,12.02-3.46,16.85-7.66c7.11-6.18,10.87-14.16,11.53-23.47c0.53-7.54-0.71-14.81-4.74-21.39
			c-4.16-6.8-9.95-11.63-17.49-14.28c-5.37-1.89-10.91-2.16-16.55-1.58c-5.5,0.57-10.56,2.34-15.03,5.48
			c-8.77,6.17-13.5,14.8-14.37,25.42c-0.48,5.82,0.18,11.57,2.39,17.07c2.66,6.64,7.08,11.85,13.06,15.69
			C647.31,316.15,653.54,317.78,661.18,317.48z"/>
		<path class="st0" d="M452.45,321.55c-3.56,4.82-7.47,8.66-12.2,11.61c-8,5-16.83,6.8-26.13,6.72
			c-15.47-0.13-28.22-6.22-38.58-17.6c-7.44-8.17-12.2-17.65-13.88-28.55c-2.41-15.72-0.23-30.62,9.08-43.9
			c8.07-11.52,18.69-19.66,32.73-22.39c13.9-2.7,27.23-1.23,39.19,7.14c3.74,2.61,6.85,5.89,9.79,9.91c0-3.99-0.02-7.58,0.01-11.17
			c0.01-1.36-0.58-3.14,0.24-3.98c0.83-0.83,2.61-0.24,3.97-0.25c5.92-0.03,11.84,0.02,17.77-0.04c1.09-0.01,1.34,0.3,1.34,1.36
			c-0.03,35.15-0.03,70.3,0,105.44c0,0.99-0.24,1.27-1.25,1.26c-6.94-0.05-13.89-0.05-20.83,0.01c-1.16,0.01-1.29-0.41-1.27-1.39
			C452.48,331.16,452.45,326.58,452.45,321.55z M418.25,317.65c19.75-0.03,34.24-14.68,34.19-34.55
			c-0.05-19.99-14.47-34.52-34.22-34.51c-19.7,0.02-34.05,14.53-34.08,34.47C384.11,303.07,398.51,317.68,418.25,317.65z"/>
		<path class="st1" d="M762.2,242.95c1.85-2.54,3.44-4.76,5.43-6.63c5.27-4.93,11.47-7.96,18.61-9.15
			c3.98-0.67,7.97-1.09,11.99-0.85c9.54,0.56,18.22,3.32,25.52,9.85c6.94,6.2,10.82,13.98,12.55,22.97
			c0.68,3.55,0.97,7.13,0.96,10.75c-0.03,21.83-0.03,43.66,0.02,65.5c0,1.47-0.47,1.76-1.82,1.75c-6.58-0.06-13.17-0.07-19.76,0
			c-1.4,0.02-1.79-0.36-1.79-1.78c0.04-21.32,0.11-42.64-0.02-63.96c-0.04-6.42-1.91-12.36-6.65-17.02
			c-3.86-3.79-8.63-5.58-13.98-6.1c-5.79-0.55-11.39,0.09-16.64,2.65c-7.38,3.61-11.53,9.73-13.24,17.65
			c-0.97,4.5-1.16,9.07-1.18,13.63c-0.06,17.7-0.04,35.4,0,53.1c0,1.34-0.26,1.85-1.74,1.83c-6.69-0.08-13.37-0.07-20.06-0.01
			c-1.23,0.01-1.53-0.37-1.53-1.56c0.03-49.38,0.03-98.75,0-148.13c0-1.16,0.25-1.59,1.52-1.58c6.74,0.06,13.48,0.06,20.21,0
			c1.31-0.01,1.61,0.41,1.6,1.65c-0.04,17.8-0.02,35.6-0.02,53.41C762.2,241.46,762.2,242,762.2,242.95z"/>
		<path class="st1" d="M907.65,307.43c1.02-2.87,1.98-5.54,2.92-8.21c4.78-13.58,9.53-27.17,14.32-40.75
			c3.32-9.4,6.7-18.78,10-28.19c0.33-0.94,0.77-1.25,1.75-1.25c7.35,0.03,14.7,0.05,22.05-0.01c1.39-0.01,1.36,0.44,0.97,1.49
			c-4.98,13.34-9.93,26.7-14.9,40.04c-5.67,15.2-11.36,30.4-17.05,45.6c-3.51,9.39-6.86,18.83-10.56,28.14
			c-3.52,8.87-8.37,16.98-15.35,23.65c-6.51,6.22-14.22,10.05-23.06,11.72c-3.84,0.72-7.7,0.57-11.57,0.62
			c-0.86,0.01-1.16-0.29-1.16-1.15c0.02-6.48,0.04-12.96-0.01-19.43c-0.01-1.15,0.58-1.21,1.44-1.17c3.75,0.15,7.39-0.39,10.92-1.7
			c4.38-1.62,7.55-4.72,10.31-8.33c2.46-3.23,3.92-7,5.82-10.53c1.22-2.26,0.81-3.99-0.1-6.07c-5.42-12.35-10.77-24.73-16.12-37.1
			c-5.97-13.83-11.92-27.66-17.89-41.49c-3.29-7.62-6.57-15.23-9.91-22.82c-0.56-1.28-0.16-1.45,1.02-1.45
			c7.55,0.03,15.11,0.03,22.67,0c0.98,0,1.39,0.33,1.76,1.24c6.95,17.05,13.95,34.09,20.94,51.12c3.45,8.42,6.9,16.85,10.36,25.28
			C907.29,306.86,907.41,307.02,907.65,307.43z"/>
		<path class="st0" d="M315.97,323.71c-2.25,3.39-4.87,6.33-8.05,8.75c-5.99,4.56-12.89,6.7-20.29,7.28
			c-6.92,0.54-13.77,0.1-20.37-2.3c-10.15-3.69-17.42-10.52-21.89-20.31c-3.26-7.15-4.16-14.76-4.17-22.51
			c-0.02-21.32,0-42.65-0.04-63.97c0-1.31,0.39-1.58,1.63-1.57c6.74,0.06,13.48,0.06,20.22,0c1.29-0.01,1.58,0.37,1.58,1.61
			c-0.04,20.46-0.02,40.92-0.04,61.37c0,4.1,0.26,8.17,1.75,12.03c2.92,7.58,8.5,12,16.45,13.43c6.74,1.21,13.33,0.72,19.53-2.41
			c7.32-3.69,11.28-9.88,12.93-17.74c0.79-3.76,0.98-7.57,0.97-11.4c-0.01-18.42,0.02-36.83-0.04-55.25c0-1.41,0.4-1.66,1.71-1.65
			c6.74,0.07,13.48,0.07,20.22,0c1.3-0.01,1.58,0.38,1.58,1.62c-0.03,35-0.03,69.99,0,104.99c0,1.09-0.19,1.47-1.39,1.46
			c-6.89-0.07-13.79-0.06-20.68,0c-1.17,0.01-1.44-0.31-1.41-1.44c0.08-3.47,0.04-6.94,0.02-10.41
			C316.18,324.8,316.33,324.29,315.97,323.71z"/>
		<path class="st0" d="M526.33,258.43c0,25.66-0.01,51.32,0.03,76.99c0,1.4-0.36,1.74-1.73,1.72c-6.74-0.08-13.48-0.06-20.22-0.01
			c-1.13,0.01-1.43-0.25-1.43-1.41c0.03-51.63,0.03-103.26,0-154.89c0-1.16,0.3-1.42,1.43-1.41c6.79,0.06,13.58,0.06,20.37,0
			c1.26-0.01,1.58,0.28,1.58,1.57C526.32,206.8,526.33,232.61,526.33,258.43z"/>
		<path class="st0" d="M579.59,283.06c0,17.39-0.02,34.79,0.03,52.18c0,1.32-0.28,1.68-1.64,1.67c-6.89-0.08-13.78-0.07-20.67-0.01
			c-1.26,0.01-1.71-0.18-1.7-1.61c0.05-34.84,0.05-69.68,0.01-104.51c0-1.19,0.28-1.51,1.49-1.5c6.99,0.06,13.99,0.07,20.98-0.01
			c1.34-0.01,1.54,0.41,1.53,1.61C579.58,248.27,579.59,265.67,579.59,283.06z"/>
		<path class="st1" d="M550.6,200.86c-0.38-9.56,7.68-17.66,17.55-17.68c10.03-0.02,17.88,8.3,17.7,17.93
			c-0.17,9.54-7.63,17.37-17.75,17.45C558.38,218.63,550.23,210.55,550.6,200.86z"/>
	</g>
	<g>
		<rect x="564.84" y="192.89" class="st2" width="6.75" height="15.96"/>
		
			<rect x="564.84" y="192.89" transform="matrix(4.473583e-11 -1 1 4.473583e-11 367.3532 769.0849)" class="st2" width="6.75" height="15.96"/>
	</g>
</g>
</svg>
